{"title":"Moonrise.Kingdom.2012.LiMiTED.BRRip.XVID.leokaka","uid":7684533,"size":738352237,"categoryP":"video","categoryS":"movies","magnet":"?xt=urn:btih:6d9d42ccef4b27e7b0d8504b9c9ab66023389156&amp;dn=Moonrise.Kingdom.2012.LiMiTED.BRRip.XVID.leokaka&amp;tr=udp%3A%2F%2Ftracker.openbittorrent.com%3A80&amp;tr=udp%3A%2F%2Fopen.demonii.com%3A1337&amp;tr=udp%3A%2F%2Ftracker.coppersurfer.tk%3A6969&amp;tr=udp%3A%2F%2Fexodus.desync.com%3A6969","seeders":0,"leechers":1,"uploader":"leokaka","files":-1,"time":1348912045,"description":"Moonrise.Kingdom.2012.LiMiTED.BRRip.XVID.AbSurdiTyMoonrise.Kingdom.2012.LiMiTED.BRRip.XVID.leokaka.avi                        \n\nFormat                                   : AVI\nFormat/Info                              : Audio Video Interleave\nFile size                                : 704 MiB\nDuration                                 : 1h 33mn\nOverall bit rate                         : 1 051 Kbps\nOriginal source form/Distributed by      : Own Shit\nWriting library                          : VirtualDub build 32842/release\nCopyright                                : By AbSurdiTy\n\nVideo\nID                                       : 0\nFormat                                   : MPEG-4 Visual\nFormat profile                           : Advanced Simple@L5\nFormat settings, BVOP                    : 4\nFormat settings, QPel                    : No\nFormat settings, GMC                     : No warppoints\nFormat settings, Matrix                  : Default (H.263)\nMuxing mode                              : Packed bitstream\nCodec ID                                 : XVID\nCodec ID/Hint                            : XviD\nDuration                                 : 1h 33mn\nBit rate                                 : 914 Kbps\nWidth                                    : 656 pixels\nHeight                                   : 352 pixels\nDisplay aspect ratio                     : 1.85:1\nFrame rate                               : 24.000 fps\nColor space                              : YUV\nChroma subsampling                       : 4:2:0\nBit depth                                : 8 bits\nScan type                                : Progressive\nCompression mode                         : Lossy\nBits/(Pixel*Frame)                       : 0.165\nStream size                              : 612 MiB (87%)\nWriting library                          : XviD 64\n\nAudio\nID                                       : 1\nFormat                                   : MPEG Audio\nFormat version                           : Version 1\nFormat profile                           : Layer 3\nCodec ID                                 : 55\nCodec ID/Hint                            : MP3\nDuration                                 : 1h 33mn\nBit rate mode                            : Constant\nBit rate                                 : 128 Kbps\nChannel(s)                               : 2 channels\nSampling rate                            : 48.0 KHz\nCompression mode                         : Lossy\nStream size                              : 85.7 MiB (12%)\nAlignment                                : Split accross interleaves\nInterleave, duration                     : 42 ms (1.00 video frame)\nInterleave, preload duration             : 500 ms\nWriting library                          : LAMELAME_MAJOR_VERSI\n\n","torrent":{"xt":"urn:btih:6d9d42ccef4b27e7b0d8504b9c9ab66023389156","amp;dn":"Moonrise.Kingdom.2012.LiMiTED.BRRip.XVID.leokaka","amp;tr":["udp%3A%2F%2Ftracker.openbittorrent.com%3A80","udp%3A%2F%2Fopen.demonii.com%3A1337","udp%3A%2F%2Ftracker.coppersurfer.tk%3A6969","udp%3A%2F%2Fexodus.desync.com%3A6969"],"infoHash":"6d9d42ccef4b27e7b0d8504b9c9ab66023389156","infoHashBuffer":{"type":"Buffer","data":[109,157,66,204,239,75,39,231,176,216,80,75,156,154,182,96,35,56,145,86]},"announce":[],"urlList":[]}}